<svg xmlns="http://www.w3.org/2000/svg" xmlns:xlink="http://www.w3.org/1999/xlink" width="196" height="196" viewBox="0 0 196 196">
  <defs>
    <clipPath id="clip-path">
      <rect id="Rectángulo_1513" data-name="Rectángulo 1513" width="93.287" height="93.287" fill="#e0e0e0"/>
    </clipPath>
  </defs>
  <g id="Grupo_12914" data-name="Grupo 12914" transform="translate(3437 4093)">
    <g id="Grupo_12913" data-name="Grupo 12913" transform="translate(-3433.45 -4081.133)">
      <g id="Grupo_12909" data-name="Grupo 12909" transform="translate(17.127 14.45)">
        <g id="Grupo_12900" data-name="Grupo 12900" transform="translate(4.365 10.787)">
          <path id="Trazado_4976" data-name="Trazado 4976" d="M528.964,317.365H517.1V418.548a12.089,12.089,0,0,1-12.089,12.089H414.269v.116a12.089,12.089,0,0,0,12.089,12.089H528.963a12.089,12.089,0,0,0,12.089-12.089v-101.3A12.089,12.089,0,0,0,528.964,317.365Z" transform="translate(-389.397 -304.029)" fill="#d5d5d5" opacity="0.398"/>
          <path id="Trazado_4980" data-name="Trazado 4980" d="M368.372,287.865a9.6,9.6,0,0,0-9.6,9.6v101.3a9.6,9.6,0,0,0,9.6,9.6h65.485a46.723,46.723,0,0,0,46.723-46.723V297.467a9.6,9.6,0,0,0-9.6-9.6Z" transform="translate(-358.77 -287.865)" fill="#fff"/>
        </g>
        <rect id="Rectángulo_1511" data-name="Rectángulo 1511" width="158" height="158" transform="translate(0.323 -0.317)" fill="none"/>
      </g>
      <g id="Grupo_12910" data-name="Grupo 12910" transform="translate(35.018 36.769)" opacity="0.599">
        <g id="Grupo_12905" data-name="Grupo 12905">
          <g id="Grupo_12904" data-name="Grupo 12904" clip-path="url(#clip-path)">
            <path id="Trazado_5012" data-name="Trazado 5012" d="M92.453,44.628,48.66.835a2.852,2.852,0,0,0-4.032,0L.836,44.628a2.851,2.851,0,0,0,0,4.032L44.628,92.452a2.851,2.851,0,0,0,4.032,0L92.453,48.66a2.851,2.851,0,0,0,0-4.032M88.84,48.66,48.66,88.84a2.851,2.851,0,0,1-4.032,0L4.447,48.66a2.852,2.852,0,0,1,0-4.032l40.18-40.18a2.851,2.851,0,0,1,4.032,0l40.18,40.18a2.851,2.851,0,0,1,0,4.032" transform="translate(0 0)" fill="#e0e0e0"/>
          </g>
        </g>
      </g>
      <g id="Grupo_12912" data-name="Grupo 12912" transform="translate(0 0)" opacity="0.487">
        <ellipse id="Elipse_210" data-name="Elipse 210" cx="3.356" cy="3.356" rx="3.356" ry="3.356" transform="translate(151.795 17.103) rotate(41)" fill="#d5d5d5"/>
        <path id="Elipse_160" data-name="Elipse 160" d="M4.78,0A4.782,4.782,0,1,1,0,4.78,4.793,4.793,0,0,1,4.78,0Zm0,8.972A4.189,4.189,0,1,0,.593,4.78,4.189,4.189,0,0,0,4.784,8.972Z" transform="translate(10.321 132.855) rotate(41)" fill="#a5a5a5"/>
        <path id="Rectángulo_857" data-name="Rectángulo 857" d="M.892.892l0,5.853,5.853,0,0-5.853L.892.892M0,0,7.635,0l0,7.631L0,7.635Z" transform="translate(0 49.07) rotate(-45)" fill="#d5d5d5"/>
        <ellipse id="Elipse_211" data-name="Elipse 211" cx="3.356" cy="3.356" rx="3.356" ry="3.356" transform="translate(180.084 130.133) rotate(41)" fill="#a5a5a5"/>
        <ellipse id="Elipse_212" data-name="Elipse 212" cx="3.356" cy="3.356" rx="3.356" ry="3.356" transform="translate(21.942 0) rotate(41)" fill="#a5a5a5"/>
        <path id="Rectángulo_861" data-name="Rectángulo 861" d="M1.257,1.257l0,6.108,6.108,0,0-6.108-6.108,0M0,0,8.619,0l0,8.615L0,8.619Z" transform="translate(176.563 57.335) rotate(-45)" fill="#d5d5d5"/>
      </g>
      <path id="Trazado_5018" data-name="Trazado 5018" d="M1.419,2.632A6.793,6.793,0,0,0,7.127,13.58c5.036,9.775,5.149,9.849,9.122,19.735a6.8,6.8,0,0,0,4.98,11.061l-2.257-5.166,5.074-2.22,2.332,5.372a6.8,6.8,0,0,0-5.41-11.547c-5.073-9.381-4.924-9.643-9.027-19.567A6.8,6.8,0,0,0,6.307.019L8.862,5.261,3.9,7.7Z" transform="translate(60.946 67.747) rotate(-20)" fill="#d8d8d8" fill-rule="evenodd"/>
      <path id="Trazado_5020" data-name="Trazado 5020" d="M17.773,3.4l.488.046,5.921,3.056a4.23,4.23,0,0,1,1.957,5.63h0a4.242,4.242,0,0,1-5.631,1.956l-6.393-3.1a4.2,4.2,0,0,1-1.957-5.614h0A4.224,4.224,0,0,1,17.773,3.4Zm9.973,5.631c1.462.7,2.927,1.4,4.39,2.115a8.7,8.7,0,0,1-3.1,6.393c-1.464-.7-2.926-1.415-4.389-2.115,2.433-1.256,3.292-3.5,3.1-6.393ZM13.526,12.057l6.521,3.149L6.714,42.787a1.457,1.457,0,0,1-1.94.668L.75,41.514a1.33,1.33,0,0,1-.62-1.766Zm-.1-9.941C11.967,1.416,10.505.7,9.041,0,6.528,1.861,6,5.153,5.955,6.394c1.463.716,2.927,1.416,4.39,2.115-.524-2.672.685-4.74,3.086-6.393Z" transform="translate(77.848 57.677) rotate(19)" fill="#d8d8d8" fill-rule="evenodd"/>
      <line id="Línea_85" data-name="Línea 85" x1="22.557" y2="22.557" transform="translate(62.524 74.133)" fill="none" stroke="#fff" stroke-width="1.5"/>
      <line id="Línea_86" data-name="Línea 86" x1="22.557" y2="22.557" transform="translate(69.761 78.832)" fill="none" stroke="#fff" stroke-width="1.5"/>
    </g>
    <rect id="Rectángulo_1514" data-name="Rectángulo 1514" width="196" height="196" transform="translate(-3437 -4093)" fill="none"/>
  </g>
</svg>
